<?xml version="1.0" standalone="no"?>
<!DOCTYPE svg PUBLIC "-//W3C//DTD SVG 20010904//EN"
 "http://www.w3.org/TR/2001/REC-SVG-20010904/DTD/svg10.dtd">
<svg version="1.0" xmlns="http://www.w3.org/2000/svg"
 width="70.000000pt" height="70.000000pt" viewBox="0 0 70.000000 70.000000"
 preserveAspectRatio="xMidYMid meet">
<metadata>
Created by potrace 1.14, written by Peter Selinger 2001-2017
</metadata>
<g transform="translate(0.000000,70.000000) scale(0.100000,-0.100000)"
fill="#000000" stroke="none">
<path d="M310 666 c-25 -12 -96 -48 -157 -80 -104 -54 -113 -61 -113 -88 0
-21 6 -31 26 -38 14 -6 23 -14 19 -19 -3 -5 -1 -12 4 -15 5 -4 10 -62 10 -130
1 -122 1 -125 -21 -128 -16 -2 -22 -9 -20 -20 2 -11 -3 -18 -13 -18 -19 0 -21
-66 -3 -72 7 -2 150 -3 318 -3 l305 1 3 29 c2 18 -2 33 -13 41 -8 6 -14 18
-13 25 2 8 -7 15 -19 17 -21 3 -22 8 -22 120 0 122 11 167 41 175 11 3 18 15
18 30 0 30 -21 46 -130 102 -41 21 -98 50 -125 65 l-51 27 -44 -21z m318 -165
c3 -8 -79 -11 -278 -11 -188 0 -281 3 -278 10 2 6 64 43 138 84 l135 73 140
-73 c77 -40 141 -77 143 -83z m-470 -48 c-10 -2 -26 -2 -35 0 -10 3 -2 5 17 5
19 0 27 -2 18 -5z m60 -4 c-2 -3 2 -12 9 -20 7 -9 12 -58 12 -137 l0 -122 -29
0 -30 0 1 113 c0 111 12 181 31 175 5 -2 8 -6 6 -9z m80 4 c-10 -2 -26 -2 -35
0 -10 3 -2 5 17 5 19 0 27 -2 18 -5z m60 -4 c-2 -3 3 -13 10 -22 9 -11 12 -50
11 -136 l-1 -121 -28 0 -29 0 1 118 c0 110 12 176 31 169 5 -1 7 -5 5 -8z m80
4 c-10 -2 -26 -2 -35 0 -10 3 -2 5 17 5 19 0 27 -2 18 -5z m70 -21 c7 -18 12
-71 11 -145 l-2 -117 -28 0 -29 0 2 123 c2 107 12 167 28 167 3 0 11 -13 18
-28z m70 21 c-10 -2 -26 -2 -35 0 -10 3 -2 5 17 5 19 0 27 -2 18 -5z m-426
-45 c3 -11 2 -179 -1 -226 -1 -8 -6 -12 -13 -10 -7 3 -11 39 -10 114 0 136 0
134 11 134 5 0 11 -6 13 -12z m140 0 c6 -22 2 -227 -5 -235 -16 -15 -20 13
-21 127 -1 84 2 120 10 120 7 0 14 -6 16 -12z m141 -96 c-2 -145 -1 -142 -15
-142 -10 0 -13 29 -12 115 2 142 1 135 17 135 9 0 12 -27 10 -108z m138 96 c4
-57 3 -222 -2 -230 -17 -27 -24 9 -22 109 1 137 1 133 13 133 6 0 10 -6 11
-12z m41 -286 c-1 -7 5 -15 13 -18 8 -4 15 -9 15 -13 0 -3 -131 -6 -290 -6
-160 0 -290 3 -290 6 0 4 7 9 15 13 8 3 15 9 14 13 -1 4 -1 11 0 16 0 4 119 6
264 5 206 -2 261 -6 259 -16z"/>
<path d="M329 613 c-24 -6 -41 -50 -29 -73 17 -31 45 -42 74 -28 14 6 27 15
27 20 1 4 2 14 3 21 3 16 -15 57 -25 57 -4 0 -13 2 -21 4 -7 2 -20 2 -29 -1z
m41 -39 c11 -12 10 -18 -3 -32 -16 -15 -18 -15 -34 0 -13 14 -14 20 -3 32 7 9
16 16 20 16 4 0 13 -7 20 -16z"/>
</g>
</svg>
